<mxfile host="65bd71144e">
    <diagram name="Page-1" id="TU9cMm2nIYHP4PvLX6EH">
        <mxGraphModel dx="683" dy="548" grid="1" gridSize="10" guides="1" tooltips="1" connect="1" arrows="1" fold="1" page="1" pageScale="1" pageWidth="850" pageHeight="1100" math="0" shadow="0">
            <root>
                <mxCell id="0"/>
                <mxCell id="1" parent="0"/>
                <mxCell id="18" value="" style="html=1;shadow=0;dashed=0;align=center;verticalAlign=middle;shape=mxgraph.arrows2.jumpInArrow;dy=15;dx=38;arrowHead=55;direction=east;flipH=1;rotation=90;" vertex="1" parent="1">
                    <mxGeometry x="520" y="320" width="100" height="100" as="geometry"/>
                </mxCell>
                <mxCell id="19" value="" style="html=1;shadow=0;dashed=0;align=center;verticalAlign=middle;shape=mxgraph.arrows2.jumpInArrow;dy=15;dx=38;arrowHead=55;direction=east;flipH=1;rotation=0;" vertex="1" parent="1">
                    <mxGeometry x="510" y="210" width="100" height="100" as="geometry"/>
                </mxCell>
                <mxCell id="20" value="" style="html=1;shadow=0;dashed=0;align=center;verticalAlign=middle;shape=mxgraph.arrows2.jumpInArrow;dy=15;dx=38;arrowHead=55;direction=east;flipH=1;rotation=-90;" vertex="1" parent="1">
                    <mxGeometry x="375" y="210" width="100" height="100" as="geometry"/>
                </mxCell>
                <mxCell id="21" value="" style="html=1;shadow=0;dashed=0;align=center;verticalAlign=middle;shape=mxgraph.arrows2.jumpInArrow;dy=15;dx=38;arrowHead=55;direction=east;flipH=1;rotation=-180;" vertex="1" parent="1">
                    <mxGeometry x="375" y="330" width="100" height="100" as="geometry"/>
                </mxCell>
                <mxCell id="22" value="DESIGN" style="html=1;shadow=0;dashed=0;align=center;verticalAlign=middle;shape=mxgraph.arrows2.arrow;dy=0.6;dx=40;notch=15;" vertex="1" parent="1">
                    <mxGeometry x="410" y="420" width="140" height="70" as="geometry"/>
                </mxCell>
                <mxCell id="23" value="PLAN" style="html=1;shadow=0;dashed=0;align=center;verticalAlign=middle;shape=mxgraph.arrows2.arrow;dy=0.6;dx=40;notch=0;" vertex="1" parent="1">
                    <mxGeometry x="260" y="420" width="160" height="70" as="geometry"/>
                </mxCell>
                <mxCell id="24" value="LAUNCH" style="html=1;shadow=0;dashed=0;align=center;verticalAlign=middle;shape=mxgraph.arrows2.arrow;dy=0.6;dx=40;notch=15;" vertex="1" parent="1">
                    <mxGeometry x="540" y="420" width="160" height="70" as="geometry"/>
                </mxCell>
                <mxCell id="25" value="DEVELOP" style="text;html=1;align=center;verticalAlign=middle;resizable=0;points=[];autosize=1;strokeColor=none;fillColor=none;" vertex="1" parent="1">
                    <mxGeometry x="610" y="355" width="80" height="30" as="geometry"/>
                </mxCell>
                <mxCell id="26" value="TEST" style="text;html=1;align=center;verticalAlign=middle;resizable=0;points=[];autosize=1;strokeColor=none;fillColor=none;" vertex="1" parent="1">
                    <mxGeometry x="595" y="230" width="50" height="30" as="geometry"/>
                </mxCell>
                <mxCell id="27" value="DEPLOY" style="text;html=1;align=center;verticalAlign=middle;resizable=0;points=[];autosize=1;strokeColor=none;fillColor=none;" vertex="1" parent="1">
                    <mxGeometry x="330" y="230" width="70" height="30" as="geometry"/>
                </mxCell>
                <mxCell id="28" value="REVIEW" style="text;html=1;align=center;verticalAlign=middle;resizable=0;points=[];autosize=1;strokeColor=none;fillColor=none;" vertex="1" parent="1">
                    <mxGeometry x="305" y="355" width="70" height="30" as="geometry"/>
                </mxCell>
            </root>
        </mxGraphModel>
    </diagram>
</mxfile>